# xmcd
#
# Track frame offsets: 
#        183
#        13035
#        27593
#        46495
#        59420
#        75658
#        89475
#        103320
#        116933
#        131355
#
# Disc length: 1982 seconds
#
# Revision: 3
# Processed by: cddbd v1.5.1PL0 Copyright (c) Steve Scherf et al.
# Submitted via: ExactAudioCopy v0.95a5
#
DISCID=8a07bc0a
DTITLE=Kathy Mattea - Lonesome Standard Time
DYEAR=1992
DGENRE=Country
TTITLE0=Lonesome Standard Time
TTITLE1=Lonely at the Bottom
TTITLE2=Standing Knee Deep in a River (Dying of Thirst)
TTITLE3=Forgive and Forget
TTITLE4=Last Night I Dreamed of Loving You
TTITLE5=Listen to the Radio
TTITLE6=Slow Boat
TTITLE7=33, 45, 78 (Record Time)
TTITLE8=Amarillo
TTITLE9=Seeds
EXTD=
EXTT0=
EXTT1=
EXTT2=
EXTT3=
EXTT4=
EXTT5=
EXTT6=
EXTT7=
EXTT8=
EXTT9=
PLAYORDER=
